<svg id="Layer_1" enable-background="new 0 0 512 512" height="512" viewBox="0 0 512 512" width="512" xmlns="http://www.w3.org/2000/svg"><path d="m112 24h288v464h-288z" fill="#bf702a"/><path d="m256 512h16v-512h-16l-128 40v432z" fill="#f29a2e"/><path d="m231.764 290.627-9.854-1.642c-3.411-.568-5.91-3.519-5.91-6.977v-36.016c0-3.458 2.5-6.409 5.91-6.977l9.854-1.642c4.311-.719 8.236 2.606 8.236 6.977v39.301c0 4.37-3.925 7.695-8.236 6.976z" fill="#6ed1f7"/><path d="m256 0h16v512h-16z" fill="#bf702a"/><g fill="#733729"><path d="m272 40h112v432h-112z"/><path d="m224 252h-7.056l-7.057-3.529c-6.191-3.096-13.583-3.096-19.774 0l-7.902 3.951c-1.976.988-2.776 3.391-1.789 5.366.701 1.402 2.113 2.212 3.581 2.212.601 0 1.212-.136 1.786-.423l7.902-3.951c3.95-1.975 8.668-1.975 12.618 0l7.902 3.951c.556.278 1.168.422 1.789.422h8c2.209 0 4-1.791 4-4s-1.791-3.999-4-3.999z"/></g></svg>